<svg width="1920" height="1080" fill="none" xmlns="http://www.w3.org/2000/svg"><g clip-path="url(#clip0_119_79)" stroke="#040237" stroke-width="2" stroke-miterlimit="10" stroke-linecap="round" stroke-linejoin="round"><path d="M1.6 967.3V26.5c0-13.8 11.2-25 25-25h1840.9m51.2 690.602V1054c0 13.7-11.1 24.8-24.8 24.8H712.5M1830 76.8H90"/><path d="M53 51c6.02 0 10.9-4.88 10.9-10.9 0-6.02-4.88-10.9-10.9-10.9-6.02 0-10.9 4.88-10.9 10.9C42.1 46.12 46.98 51 53 51zm31.5 0c6.02 0 10.9-4.88 10.9-10.9 0-6.02-4.88-10.9-10.9-10.9-6.02 0-10.9 4.88-10.9 10.9 0 6.02 4.88 10.9 10.9 10.9zm31.6 0c6.02 0 10.9-4.88 10.9-10.9 0-6.02-4.88-10.9-10.9-10.9-6.02 0-10.9 4.88-10.9 10.9 0 6.02 4.88 10.9 10.9 10.9z"/></g><defs><clipPath id="clip0_119_79"><path fill="#fff" d="M0 0h1920v1080H0z"/></clipPath></defs></svg>